<?xml version="1.0" encoding="UTF-8" standalone="no"?>
<!-- Created with Inkscape (http://www.inkscape.org/) -->

<svg
   width="108"
   height="108"
   viewBox="0 0 28.574999 28.575"
   version="1.1"
   id="svg1"
   sodipodi:docname="klock_invert.svg"
   inkscape:version="1.3 (0e150ed6c4, 2023-07-21)"
   xmlns:inkscape="http://www.inkscape.org/namespaces/inkscape"
   xmlns:sodipodi="http://sodipodi.sourceforge.net/DTD/sodipodi-0.dtd"
   xmlns="http://www.w3.org/2000/svg"
   xmlns:svg="http://www.w3.org/2000/svg">
  <sodipodi:namedview
     id="namedview1"
     pagecolor="#ffffff"
     bordercolor="#000000"
     borderopacity="0.25"
     inkscape:showpageshadow="2"
     inkscape:pageopacity="0.0"
     inkscape:pagecheckerboard="0"
     inkscape:deskcolor="#d1d1d1"
     inkscape:document-units="mm"
     inkscape:zoom="5.5375421"
     inkscape:cx="61.489375"
     inkscape:cy="43.250236"
     inkscape:window-width="1920"
     inkscape:window-height="991"
     inkscape:window-x="-9"
     inkscape:window-y="-9"
     inkscape:window-maximized="1"
     inkscape:current-layer="layer1" />
  <defs
     id="defs1">
    <rect
       x="46.229897"
       y="34.311252"
       width="48.396923"
       height="61.760253"
       id="rect11" />
    <rect
       x="52.911562"
       y="33.047153"
       width="9.3904479"
       height="46.591068"
       id="rect10" />
  </defs>
  <g
     inkscape:label="Calque 1"
     inkscape:groupmode="layer"
     id="layer1">
    <path
       id="path1"
       style="fill:#fe2d2c;fill-opacity:0.986;stroke-width:0.177674"
       d="M 14.2875 5.429126 A 8.8582087 8.8582087 0 0 0 5.429126 14.2875 A 8.8582087 8.8582087 0 0 0 14.2875 23.145874 A 8.8582087 8.8582087 0 0 0 23.145874 14.2875 A 8.8582087 8.8582087 0 0 0 14.2875 5.429126 z M 14.2875 6.6145833 A 0.26458332 0.26458332 0 0 1 14.552083 6.8791667 A 0.26458332 0.26458332 0 0 1 14.2875 7.14375 A 0.26458332 0.26458332 0 0 1 14.022917 6.8791667 A 0.26458332 0.26458332 0 0 1 14.2875 6.6145833 z M 9.2945231 8.6754395 A 0.26458332 0.26458332 0 0 1 9.5007121 8.7524373 A 0.26458332 0.26458332 0 0 1 9.5007121 9.1265747 A 0.26458332 0.26458332 0 0 1 9.1265747 9.1265747 A 0.26458332 0.26458332 0 0 1 9.1265747 8.7524373 A 0.26458332 0.26458332 0 0 1 9.2945231 8.6754395 z M 19.77192 8.6754395 A 0.26458332 0.26458332 0 0 1 19.977592 8.7524373 A 0.26458332 0.26458332 0 0 1 19.977592 9.1265747 A 0.26458332 0.26458332 0 0 1 19.603455 9.1265747 A 0.26458332 0.26458332 0 0 1 19.603455 8.7524373 A 0.26458332 0.26458332 0 0 1 19.77192 8.6754395 z M 12.534635 9.6242187 L 13.380579 9.6242187 L 13.380579 14.491105 L 16.469796 9.6242187 L 17.495056 9.6242187 L 14.653886 14.008964 L 17.627865 18.950781 L 16.52974 18.950781 L 14.013098 14.798063 L 13.380579 15.787667 L 13.380579 18.950781 L 12.534635 18.950781 L 12.534635 9.6242187 z M 6.8791667 14.022917 A 0.26458332 0.26458332 0 0 1 7.14375 14.2875 A 0.26458332 0.26458332 0 0 1 6.8791667 14.552083 A 0.26458332 0.26458332 0 0 1 6.6145833 14.2875 A 0.26458332 0.26458332 0 0 1 6.8791667 14.022917 z M 22.225 14.022917 A 0.26458332 0.26458332 0 0 1 22.489583 14.2875 A 0.26458332 0.26458332 0 0 1 22.225 14.552083 A 0.26458332 0.26458332 0 0 1 21.960417 14.2875 A 0.26458332 0.26458332 0 0 1 22.225 14.022917 z M 8.9203857 19.526457 A 0.26458332 0.26458332 0 0 1 9.1265747 19.603455 A 0.26458332 0.26458332 0 0 1 9.1265747 19.977592 A 0.26458332 0.26458332 0 0 1 8.7524373 19.977592 A 0.26458332 0.26458332 0 0 1 8.7524373 19.603455 A 0.26458332 0.26458332 0 0 1 8.9203857 19.526457 z M 20.146057 19.526457 A 0.26458332 0.26458332 0 0 1 20.351729 19.603455 A 0.26458332 0.26458332 0 0 1 20.351729 19.977592 A 0.26458332 0.26458332 0 0 1 19.977592 19.977592 A 0.26458332 0.26458332 0 0 1 19.977592 19.603455 A 0.26458332 0.26458332 0 0 1 20.146057 19.526457 z M 14.2875 21.960417 A 0.26458332 0.26458332 0 0 1 14.552083 22.225 A 0.26458332 0.26458332 0 0 1 14.2875 22.489583 A 0.26458332 0.26458332 0 0 1 14.022917 22.225 A 0.26458332 0.26458332 0 0 1 14.2875 21.960417 z " />
  </g>
</svg>
