<?xml version="1.0" encoding="UTF-8" standalone="no"?>
<!-- Created with Inkscape (http://www.inkscape.org/) -->

<svg
   width="108"
   height="108"
   viewBox="0 0 28.574999 28.575"
   version="1.1"
   id="svg1"
   sodipodi:docname="klock_invert_v2.svg"
   inkscape:version="1.3 (0e150ed6c4, 2023-07-21)"
   xmlns:inkscape="http://www.inkscape.org/namespaces/inkscape"
   xmlns:sodipodi="http://sodipodi.sourceforge.net/DTD/sodipodi-0.dtd"
   xmlns="http://www.w3.org/2000/svg"
   xmlns:svg="http://www.w3.org/2000/svg">
  <sodipodi:namedview
     id="namedview1"
     pagecolor="#ffffff"
     bordercolor="#000000"
     borderopacity="0.25"
     inkscape:showpageshadow="2"
     inkscape:pageopacity="0.0"
     inkscape:pagecheckerboard="0"
     inkscape:deskcolor="#d1d1d1"
     inkscape:document-units="px"
     inkscape:zoom="5.5375421"
     inkscape:cx="41.44438"
     inkscape:cy="17.60709"
     inkscape:window-width="1920"
     inkscape:window-height="991"
     inkscape:window-x="-9"
     inkscape:window-y="-9"
     inkscape:window-maximized="1"
     inkscape:current-layer="layer1" />
  <defs
     id="defs1">
    <rect
       x="46.229897"
       y="34.311252"
       width="48.396923"
       height="61.760253"
       id="rect11" />
    <rect
       x="52.911562"
       y="33.047153"
       width="9.3904479"
       height="46.591068"
       id="rect10" />
  </defs>
  <g
     inkscape:label="Calque 1"
     inkscape:groupmode="layer"
     id="layer1">
    <path
       id="path1"
       style="fill:#fe2d2c;fill-opacity:0.986;stroke-width:0.710696"
       d="M 14.2875 5.4291259 A 8.8582087 8.8582087 0 0 0 5.4291259 14.2875 A 8.8582087 8.8582087 0 0 0 14.2875 23.145874 A 8.8582087 8.8582087 0 0 0 23.145874 14.2875 A 8.8582087 8.8582087 0 0 0 14.2875 5.4291259 z M 14.2875 5.8208332 A 1.0583333 1.0583333 0 0 1 15.345833 6.8791665 A 1.0583333 1.0583333 0 0 1 14.2875 7.9374999 A 1.0583333 1.0583333 0 0 1 13.229166 6.8791665 A 1.0583333 1.0583333 0 0 1 14.2875 5.8208332 z M 8.9203856 8.204667 A 1.0583333 1.0583333 0 0 1 9.7441079 8.5121418 A 1.0583333 1.0583333 0 0 1 9.7441079 10.008691 A 1.0583333 1.0583333 0 0 1 8.2475584 10.008691 A 1.0583333 1.0583333 0 0 1 8.2475584 8.5121418 A 1.0583333 1.0583333 0 0 1 8.9203856 8.204667 z M 19.503719 8.204667 A 1.0583333 1.0583333 0 0 1 20.327441 8.5121418 A 1.0583333 1.0583333 0 0 1 20.327441 10.008691 A 1.0583333 1.0583333 0 0 1 18.830892 10.008691 A 1.0583333 1.0583333 0 0 1 18.830892 8.5121418 A 1.0583333 1.0583333 0 0 1 19.503719 8.204667 z M 12.534635 9.6242186 L 13.380578 9.6242186 L 13.380578 14.491105 L 16.469795 9.6242186 L 17.495056 9.6242186 L 14.653886 14.008964 L 17.627864 18.950781 L 16.52974 18.950781 L 14.013098 14.798063 L 13.380578 15.787667 L 13.380578 18.950781 L 12.534635 18.950781 L 12.534635 9.6242186 z M 6.8791665 13.229166 A 1.0583333 1.0583333 0 0 1 7.9374999 14.2875 A 1.0583333 1.0583333 0 0 1 6.8791665 15.345833 A 1.0583333 1.0583333 0 0 1 5.8208332 14.2875 A 1.0583333 1.0583333 0 0 1 6.8791665 13.229166 z M 21.695833 13.229166 A 1.0583333 1.0583333 0 0 1 22.754166 14.2875 A 1.0583333 1.0583333 0 0 1 21.695833 15.345833 A 1.0583333 1.0583333 0 0 1 20.6375 14.2875 A 1.0583333 1.0583333 0 0 1 21.695833 13.229166 z M 8.9203856 18.258834 A 1.0583333 1.0583333 0 0 1 9.7441079 18.566308 A 1.0583333 1.0583333 0 0 1 9.7441079 20.062858 A 1.0583333 1.0583333 0 0 1 8.2475584 20.062858 A 1.0583333 1.0583333 0 0 1 8.2475584 18.566308 A 1.0583333 1.0583333 0 0 1 8.9203856 18.258834 z M 19.503719 18.258834 A 1.0583333 1.0583333 0 0 1 20.327441 18.566308 A 1.0583333 1.0583333 0 0 1 20.327441 20.062858 A 1.0583333 1.0583333 0 0 1 18.830892 20.062858 A 1.0583333 1.0583333 0 0 1 18.830892 18.566308 A 1.0583333 1.0583333 0 0 1 19.503719 18.258834 z M 14.2875 20.6375 A 1.0583333 1.0583333 0 0 1 15.345833 21.695833 A 1.0583333 1.0583333 0 0 1 14.2875 22.754166 A 1.0583333 1.0583333 0 0 1 13.229166 21.695833 A 1.0583333 1.0583333 0 0 1 14.2875 20.6375 z " />
  </g>
</svg>
