<?xml version="1.0" encoding="UTF-8" standalone="no"?>
<!-- Created with Inkscape (http://www.inkscape.org/) -->

<svg
   width="108"
   height="108"
   viewBox="0 0 28.574999 28.575"
   version="1.1"
   id="svg1"
   sodipodi:docname="klock_invert_v3.svg"
   inkscape:version="1.3 (0e150ed6c4, 2023-07-21)"
   xmlns:inkscape="http://www.inkscape.org/namespaces/inkscape"
   xmlns:sodipodi="http://sodipodi.sourceforge.net/DTD/sodipodi-0.dtd"
   xmlns="http://www.w3.org/2000/svg"
   xmlns:svg="http://www.w3.org/2000/svg">
  <sodipodi:namedview
     id="namedview1"
     pagecolor="#ffffff"
     bordercolor="#000000"
     borderopacity="0.25"
     inkscape:showpageshadow="2"
     inkscape:pageopacity="0.0"
     inkscape:pagecheckerboard="0"
     inkscape:deskcolor="#d1d1d1"
     inkscape:document-units="px"
     inkscape:zoom="5.5375421"
     inkscape:cx="47.945459"
     inkscape:cy="47.764874"
     inkscape:window-width="1920"
     inkscape:window-height="991"
     inkscape:window-x="-9"
     inkscape:window-y="-9"
     inkscape:window-maximized="1"
     inkscape:current-layer="layer1" />
  <defs
     id="defs1">
    <rect
       x="46.229897"
       y="34.311252"
       width="48.396923"
       height="61.760253"
       id="rect11" />
    <rect
       x="52.911562"
       y="33.047153"
       width="9.3904479"
       height="46.591068"
       id="rect10" />
  </defs>
  <g
     inkscape:label="Calque 1"
     inkscape:groupmode="layer"
     id="layer1">
    <path
       id="path7"
       style="opacity:1;fill:none;fill-opacity:0.986;stroke:#25dc1e;stroke-width:0.396684;stroke-opacity:1"
       d="M 14.2875 1.5213541 A 12.766241 12.766241 0 0 0 1.5213541 14.2875 A 12.766241 12.766241 0 0 0 14.2875 27.053645 A 12.766241 12.766241 0 0 0 27.053645 14.2875 A 12.766241 12.766241 0 0 0 14.2875 1.5213541 z M 11.25461 7.8150267 L 12.505696 7.8150267 L 12.505696 14.57017 L 17.072859 7.8150267 L 18.589046 7.8150267 L 14.388269 13.900443 L 18.7849 20.759973 L 17.161226 20.759973 L 13.440523 14.995984 L 12.505696 16.369543 L 12.505696 20.759973 L 11.25461 20.759973 L 11.25461 7.8150267 z " />
  </g>
</svg>
